<?xml version="1.0" standalone="no"?>
<!DOCTYPE svg PUBLIC "-//W3C//DTD SVG 20010904//EN"
 "http://www.w3.org/TR/2001/REC-SVG-20010904/DTD/svg10.dtd">
<svg version="1.0" xmlns="http://www.w3.org/2000/svg"
 width="800.000000pt" height="800.000000pt" viewBox="0 0 800.000000 800.000000"
 preserveAspectRatio="xMidYMid meet">
<metadata>
Created by potrace 1.11, written by Peter Selinger 2001-2013
</metadata>
<g transform="translate(0.000000,800.000000) scale(0.100000,-0.100000)"
fill="#000000" stroke="none">
<path d="M3920 7990 c-101 -29 -182 -106 -215 -205 -15 -45 -17 -118 -17 -721
0 -441 4 -684 11 -710 25 -95 118 -189 210 -215 61 -17 148 -14 204 8 93 37
175 132 192 223 4 19 7 334 7 700 -1 593 -3 671 -17 715 -25 75 -85 148 -145
176 -14 6 -34 16 -45 22 -24 12 -150 18 -185 7z"/>
<path d="M1922 7564 c-98 -25 -164 -77 -209 -164 -25 -48 -28 -65 -27 -140 l1
-85 182 -410 c101 -225 195 -437 210 -470 16 -33 47 -104 71 -158 51 -117 85
-166 142 -205 122 -83 277 -72 391 27 72 63 115 201 92 291 -9 35 -232 548
-343 790 -12 25 -51 113 -87 195 -79 180 -104 224 -147 261 -41 34 -111 65
-158 71 -19 2 -42 5 -50 7 -9 2 -39 -3 -68 -10z"/>
<path d="M5960 7568 c-64 -11 -144 -53 -181 -96 -18 -20 -50 -75 -72 -122 -21
-47 -52 -113 -68 -148 -16 -35 -29 -65 -29 -67 0 -3 -11 -28 -24 -57 -26 -56
-188 -419 -213 -478 -9 -19 -28 -62 -44 -95 -81 -174 -109 -254 -110 -312 -1
-89 35 -174 98 -232 97 -89 238 -110 350 -52 58 29 100 67 127 115 30 51 481
1062 506 1133 26 72 21 172 -10 237 -59 122 -200 197 -330 174z"/>
<path d="M237 6351 c-99 -34 -182 -120 -208 -216 -6 -22 -9 -69 -7 -105 8
-100 38 -150 165 -266 168 -154 294 -267 317 -287 12 -10 54 -49 95 -85 41
-37 83 -75 95 -85 12 -10 39 -35 61 -56 83 -77 125 -104 187 -121 79 -21 148
-17 213 15 91 44 143 104 170 199 34 115 -2 234 -98 322 -62 58 -201 184 -237
214 -14 12 -43 38 -65 58 -22 20 -63 57 -91 82 -27 25 -95 86 -149 136 -152
140 -195 172 -250 191 -66 21 -140 23 -198 4z"/>
<path d="M7567 6347 c-42 -14 -80 -39 -151 -102 -52 -45 -101 -89 -109 -96
-13 -14 -146 -133 -185 -167 -27 -24 -182 -164 -202 -182 -9 -8 -57 -52 -108
-98 -114 -104 -144 -159 -148 -268 -2 -62 2 -82 25 -131 30 -63 86 -124 135
-150 97 -51 220 -48 306 6 26 16 131 105 215 182 28 25 72 66 100 90 61 54 52
46 166 149 372 338 364 328 364 475 -1 97 -15 138 -71 205 -78 92 -216 128
-337 87z"/>
<path d="M3789 5496 c-2 -2 -42 -7 -89 -10 -47 -3 -101 -8 -120 -10 -19 -3
-55 -8 -80 -11 -608 -83 -1210 -317 -1770 -688 -96 -64 -328 -232 -340 -246
-3 -3 -27 -24 -55 -46 -161 -127 -447 -400 -581 -555 -21 -25 -44 -49 -50 -55
-52 -49 -298 -371 -400 -525 -127 -189 -273 -451 -293 -522 -22 -80 -4 -178
51 -271 15 -26 28 -50 28 -53 0 -10 138 -240 207 -344 69 -104 286 -396 340
-457 15 -17 51 -57 78 -89 91 -106 324 -345 420 -429 295 -261 645 -512 925
-663 340 -184 671 -316 1004 -402 66 -17 131 -32 145 -35 14 -3 37 -7 51 -10
52 -11 201 -36 242 -41 24 -3 57 -7 73 -9 103 -14 227 -19 425 -20 299 0 453
14 754 71 127 23 498 131 581 168 17 8 41 17 55 21 14 4 92 37 173 73 373 163
698 364 1072 661 129 103 228 194 410 376 157 157 220 224 295 315 25 30 47
57 50 60 10 10 93 111 114 140 96 131 219 306 250 355 21 33 49 76 61 95 29
44 102 175 146 260 30 59 33 73 33 150 0 81 -3 89 -47 175 -195 376 -444 727
-761 1070 -94 103 -337 338 -416 404 -19 16 -48 41 -65 56 -141 123 -495 370
-700 487 -492 280 -981 450 -1510 524 -60 8 -132 17 -160 20 -61 6 -541 14
-546 10z"/>
</g>
</svg>
