<?xml version="1.0" encoding="UTF-8" standalone="no"?>
<svg
   xmlns:dc="http://purl.org/dc/elements/1.1/"
   xmlns:cc="http://creativecommons.org/ns#"
   xmlns:rdf="http://www.w3.org/1999/02/22-rdf-syntax-ns#"
   xmlns:svg="http://www.w3.org/2000/svg"
   xmlns="http://www.w3.org/2000/svg"
   width="1496.0309mm"
   height="1669.554mm"
   viewBox="0 0 1496.0309 1669.554"
   version="1.1"
   id="svg1446">
  <defs
     id="defs1440" />
  <metadata
     id="metadata1443">
    <rdf:RDF>
      <cc:Work
         rdf:about="">
        <dc:format>image/svg+xml</dc:format>
        <dc:type
           rdf:resource="http://purl.org/dc/dcmitype/StillImage" />
        <dc:title></dc:title>
      </cc:Work>
    </rdf:RDF>
  </metadata>
  <g
     id="layer1"
     transform="translate(711.72972,694.92577)">
    <g
       id="laptop">
      <path
         style="fill:none;stroke:#ff80ff;stroke-width:5.29167;stroke-linecap:butt;stroke-linejoin:miter;stroke-miterlimit:4;stroke-dasharray:none;stroke-opacity:1"
         d="m 583.60708,437.75443 c 0,0 -236.701,168.007 -310.38804,220.1898 -19.74048,13.9796 -68.97507,-35.1508 -68.97507,-35.1508 L -115.42916,245.41999 -91.553158,214.91175 167.76674,57.728143 c 0,0 16.21848,-4.65709 21.24506,0.3325 106.98638,106.198087 343.96518,312.526787 398.04858,359.435987 7.1809,6.2284 -3.4533,20.2578 -3.4533,20.2578 z"
         id="path114" />
      <path
         style="fill:none;stroke:#e0ab00;stroke-width:5.29167;stroke-linecap:butt;stroke-linejoin:miter;stroke-miterlimit:4;stroke-dasharray:none;stroke-opacity:1"
         d="m 781.24248,37.751653 c 8.5337,37.88931 -127.1278,243.421827 -166.015,317.960977 -6.0675,11.6302 -38.8622,3.3852 -38.8622,3.3852 0,0 -132.0142,-99.78042 -199.0249,-146.99206 -66.4131,-46.79056 -127.69179,-100.491 -167.30196,-125.581357 -12.54207,-7.94454 1.15644,-33.41103 7.7805,-43.90824 26.25434,-41.6053602 74.50056,-134.60068 102.16426,-191.054543 7.458,-15.21968 14.4936,-34.58593 32.6217,-38.91505 65.1983,-15.5698 284.4171,164.088483 392.2417,193.4791628 21.2797,5.8004602 35.011,25.4767302 36.3959,31.6259102 z"
         id="path947" />
      <path
         d="m 341.16368,-154.82308 c 5.8209,0.74083 8.8195,1.97556 21.7664,9.0311 10.795,5.8914 32.2792,17.1803 41.4161,21.73113 2.9281,1.48167 6.6675,3.45721 8.2903,4.40971 1.6228,0.9525 5.0447,2.78696 7.5847,4.05696 2.5048,1.27 5.4681,2.8575 6.5264,3.52777 1.0584,0.67027 4.445,2.61056 7.5142,4.30389 14.1817,7.76111 33.6903,19.720273 44.2736,27.058043 7.9022,5.50334 24.4475,16.0514 34.9603,22.33084 5.7855,3.45723 18.1328,11.78279 21.1666,14.25223 0.882,0.74083 2.8575,2.18723 4.4098,3.21027 1.5522,1.05833 3.5277,2.57529 4.4097,3.38666 0.8819,0.8114 2.54,2.04613 3.7042,2.78696 1.1641,0.74084 3.4572,2.2225 5.1152,3.35138 3.9511,2.61056 7.4789,4.62139 14.1111,7.9375 6.4206,3.24556 14.1464,7.58473 20.6023,11.64166 15.1694,9.4897298 32.8083,18.5208398 54.1866,27.76363 4.9389,2.11667 9.4545,4.09221 10.0542,4.33917 5.5033,2.43416 11.3242,4.65666 16.6158,6.35 9.9131,3.1397 17.7448,6.20887 29.7745,11.53583 6.103,2.71637 15.1694,6.6675 20.1083,8.81944 14.0405,6.0325 17.3566,7.83166 20.955,11.39473 4.2333,4.19804 4.7978,8.8547 1.905,15.8397 -2.5753,6.24417 -12.312,22.75414 -22.5778,38.346957 -12.8764,19.50858 -16.51,25.64691 -25.5058,43.18 -7.4789,14.64025 -20.9903,40.21667 -28.3986,53.79855 -3.8453,7.05559 -11.1125,20.70809 -16.1572,30.40947 -5.1506,9.8072 -16.4395,29.10416 -27.8695,47.55446 -9.5955,15.48691 -12.1708,19.75557 -17.0744,28.50437 -4.057,7.3025 -15.5222,26.7406 -21.5547,36.5831 -5.2564,8.6078 -8.3609,12.065 -12.4884,14.0406 -2.1519,0.9878 -2.7516,1.0936 -5.5739,1.0936 -3.4925,0.035 -5.468,-0.4939 -9.3839,-2.4695 -3.175,-1.5875 -16.7216,-11.2536 -39.4758,-28.2222 -18.2739,-13.6525 -28.7867,-21.2725 -46.0375,-33.30223 -22.7542,-15.875 -38.8761,-27.5872 -58.2083,-42.15691 -11.5711,-8.74892 -18.6972,-13.89946 -28.0458,-20.28476 -9.0312,-6.17357 -27.0581,-18.97941 -36.6889,-26.10553 -3.5984,-2.64584 -11.1478,-8.11388 -16.7569,-12.17084 -9.8073,-7.05551 -14.5345,-10.54801 -26.1056,-19.33218 -6.9498,-5.29166 -35.31309,-24.97666 -50.09443,-34.81916 -4.48032,-2.96334 -10.01893,-6.70282 -12.34726,-8.29032 -5.18583,-3.56302 -8.67833,-5.715 -16.93333,-10.40694 -10.83024,-6.13833 -21.20191,-13.5114 -26.31723,-18.69723 -4.72718,-4.7625 -6.59694,-9.24277 -6.20885,-15.134137 0.38801,-6.10304 1.86968,-9.63083 13.05274,-31.07971 10.72444,-20.53166 13.0175,-25.0825 16.12194,-31.92639 5.60917,-12.31194 10.93616,-22.18973 16.43949,-30.3389002 7.02024,-10.4775 11.04191,-17.5683298 19.12051,-33.6197098 3.175,-6.31473 6.38532,-12.02973 10.16,-17.99166 2.99866,-4.7978 6.6675,-11.1125 8.14917,-14.0053 1.48166,-2.92804 2.99865,-5.8561 3.38666,-6.52637 0.38807,-0.67029 1.79917,-3.21029 3.175,-5.64446 1.34057,-2.43417 3.84533,-6.70277 5.50334,-9.525 3.13975,-5.2211 8.71365,-15.0636 14.32285,-25.223603 1.6933,-3.10444 4.6213,-8.255 6.5263,-11.46527 1.8697,-3.2103 4.3392,-7.4789 5.4681,-9.525 3.6336,-6.59696 7.62,-13.0175 9.3133,-15.16946 5.6092,-6.98498 12.2767,-10.08944 19.6144,-9.13694 z"
         id="path84-9"
         style="fill:#b76a00;fill-opacity:0.364754;stroke:none;stroke-width:0.0352777;stroke-opacity:1" />
      <path
         d="m 158.95405,155.37439 c 1.79917,0.49393 5.50333,3.10444 6.94968,4.86834 2.2225,2.78693 4.445,4.7625 8.5725,7.7611 2.68115,1.94032 6.35,5.08 9.34865,8.04333 4.79774,4.69199 5.08,4.9389 9.34858,7.05557 6.42059,3.21027 8.81943,4.93892 13.93476,10.05416 4.48024,4.48027 4.6919,4.65667 9.34857,6.985 7.16143,3.6689 9.91309,5.82081 12.94694,10.0189 2.08139,2.92804 4.79782,5.32691 7.72583,6.91441 8.39616,4.51559 11.25366,6.84392 15.06366,12.31196 2.25774,3.175 3.56301,4.19804 8.71357,6.7028 7.54944,3.66887 10.40694,5.85607 13.51143,10.51274 3.66884,5.50333 3.81,5.60917 12.9469,9.80726 5.60916,2.57524 8.78416,5.60916 11.39476,10.86554 0.7055,1.37583 1.6933,2.99862 2.2225,3.63362 1.1288,1.37584 3.8452,2.75167 7.9022,4.09221 3.7041,1.19946 6.3853,2.54 8.6783,4.26863 3.1045,2.36357 3.5278,2.99857 7.0203,10.4775 1.4111,2.99857 2.9634,3.95107 10.2305,6.10304 4.2334,1.2347 6.9498,2.64583 9.2781,4.83303 2.2225,2.11667 3.1398,3.81 4.445,8.1139 1.5169,4.9036 2.9281,6.1384 9.2075,7.8317 4.5156,1.2347 5.9267,1.7992 8.2903,3.2808 2.2225,1.4111 4.3391,3.5631 5.2916,5.3975 0.3528,0.6703 1.0584,2.7869 1.5875,4.6919 1.0937,4.1628 1.517,5.08 3.1398,6.4559 1.5169,1.3758 3.5277,2.0108 8.7489,2.9281 2.2577,0.388 5.0447,0.9877 6.1383,1.3758 3.563,1.27 6.7028,4.3392 7.5494,7.4083 0.1764,0.7056 0.3528,2.54 0.3528,4.1275 0,4.6567 1.1995,7.5494 3.6336,8.89 0.9525,0.4939 2.2225,0.5997 7.6553,0.635 3.8453,0.035 7.1614,0.2117 8.1139,0.4939 3.81,1.023 6.4911,3.2808 7.62,6.4205 0.4586,1.1995 0.4939,2.152 0.2822,4.692 -0.5997,6.7028 -0.1058,8.7842 2.3283,10.2305 1.1642,0.6703 1.8345,0.7056 10.2306,0.7056 8.9605,0 8.9958,0 10.9361,0.9172 2.5047,1.1995 4.4803,3.1397 5.5739,5.5387 0.9878,2.1519 0.9525,4.198 -0.1058,8.89 -0.9173,4.198 0.035,7.4435 2.3283,7.9022 1.7286,0.3528 7.3025,0.2469 9.8425,-0.1764 3.175,-0.4939 8.3255,-0.4939 10.2305,0.035 3.6689,0.9878 5.9973,3.0692 6.8792,6.1031 0.9878,3.3867 0.3881,4.7272 -4.6214,10.5128 -3.7041,4.2686 -7.9022,8.2903 -10.5833,10.0894 -1.1289,0.7761 -4.0217,2.3989 -6.3853,3.5984 -5.5386,2.7516 -7.2319,3.8452 -11.8533,7.7258 -2.0814,1.7639 -4.5509,3.7394 -5.4681,4.445 -1.7991,1.3053 -6.2089,3.5983 -9.2075,4.7978 -5.715,2.2577 -9.0664,4.6919 -13.1586,9.5955 -5.6444,6.7381 -7.7258,8.3256 -14.4639,10.9009 -5.0447,1.9402 -6.7733,3.4925 -9.4191,8.2902 -4.4098,8.1139 -7.8317,10.9009 -16.2631,13.2292 -2.2225,0.5997 -4.445,1.3053 -4.9389,1.5522 -1.6933,0.882 -2.7869,2.4695 -3.8805,5.6445 -3.6336,10.4069 -8.3609,15.628 -14.7814,16.263 -4.3745,0.4586 -13.0175,-3.81 -18.3092,-9.0311 -2.8928,-2.8575 -4.4803,-5.2211 -7.0908,-10.6892 -2.8222,-5.7855 -3.6336,-6.738 -7.7611,-8.643 -12.9469,-5.9267 -14.4639,-7.1967 -20.2494,-16.4395 -3.5279,-5.6444 -4.939,-6.9144 -11.042,-9.8777 -8.04335,-3.9159 -10.47752,-5.9267 -15.45169,-12.7353 -5.08,-6.9145 -6.985,-8.6078 -13.97,-12.4883 -6.91443,-3.8453 -11.8886,-8.2903 -16.22777,-14.4992 -5.78556,-8.2903 -7.58473,-9.9836 -14.2875,-13.335 -4.51556,-2.2578 -9.03107,-5.2211 -13.05274,-8.6078 -4.7625,-3.9511 -21.51949,-19.7202 -45.68476,-42.9683 -5.36223,-5.1506 -12.41774,-11.8886 -15.69857,-14.9931 -11.50059,-10.9008 -22.11917,-21.1313 -24.30643,-23.495 -1.23473,-1.3405 -4.09223,-4.833 -6.42056,-7.7963 -5.25634,-6.8087 -7.54944,-9.2075 -11.99444,-12.6648 -5.08,-3.95107 -6.80857,-5.57387 -10.795,-10.16 -1.94024,-2.25774 -6.5969,-7.12607 -10.336388,-10.795 -6.06777,-5.9972 -6.91444,-6.985 -8.07861,-9.38387 -1.5169,-3.06916 -1.94024,-5.92666 -1.27,-8.39613 0.56447,-2.08137 2.6106,-3.98637 6.87917,-6.38524 5.891428,-3.31613 7.619998,-5.32696 8.113928,-9.34863 0.45857,-4.1275 -2.11667,-11.3947 -5.291668,-14.9225 -2.04616,-2.25779 -4.26866,-3.35137 -9.17226,-4.48029 -9.24274,-2.15191 -17.25083,-1.27 -21.13137,2.29309 -1.72863,1.62274 -2.1872,1.72857 -3.8453,1.09357 -1.37583,-0.52916 -1.69333,-1.44637 -0.98774,-2.78691 1.76387,-3.24559 3.35137,-7.02029 3.77471,-9.06642 0.2822,-1.34054 0.67029,-4.86833 0.84666,-7.76108 0.49387,-7.51416 1.12887,-9.38389 4.1628,-12.24139 1.79917,-1.69334 4.7272,-3.28084 10.97137,-6.06775 1.905,-0.84666 5.0447,-2.54 6.9497,-3.77475 7.62,-4.83307 10.44226,-5.92667 19.896668,-7.72584 9.91309,-1.86973 10.58333,-2.08139 15.62809,-5.3975 3.98635,-2.61056 7.37301,-5.60916 11.88858,-10.54806 2.11666,-2.32833 4.83309,-5.00944 6.0325,-5.96194 5.32693,-4.26857 11.8886,-6.13833 16.89809,-4.7625 z m 161.21943,288.71334 c -2.9634,2.1519 -2.6811,7.62 0.4939,9.1722 2.4694,1.2347 5.1505,-1.7992 5.1505,-5.8208 0,-3.7395 -2.7869,-5.3975 -5.6444,-3.3514 z"
         id="path94-1"
         style="fill:#00b800;fill-opacity:0.364754;stroke:#00f4ff;stroke-width:0.0352777;stroke-opacity:1" />
      <path
         style="fill:none;stroke:#3380ff;stroke-width:5.29167;stroke-linecap:butt;stroke-linejoin:miter;stroke-miterlimit:4;stroke-dasharray:none;stroke-opacity:1"
         d="m 536.56228,467.21973 c 0,0 -217.0043,158.6276 -290.69131,210.8104 -19.74054,13.9795 -49.19623,1.569 -69.913,-32.337 -72.16846,-118.1145 -223.459908,-267.2547 -314.04552,-366.11816 -20.54876,-22.42651 18.24834,-41.76353 18.24834,-41.76353 L 139.48072,80.627863 c 0,0 16.21845,-4.65709 21.24508,0.3325 106.98639,106.198107 360.08098,298.740467 398.04858,359.435967 6.243,9.9801 -22.2121,26.8234 -22.2121,26.8234 z"
         id="path114-3" />
      <path
         style="fill:none;stroke:#299e45;stroke-width:5.29167;stroke-linecap:butt;stroke-linejoin:miter;stroke-miterlimit:4;stroke-dasharray:none;stroke-opacity:1"
         d="m 752.95648,60.651363 c 8.5337,37.88929 -127.1278,243.421797 -166.015,317.960867 -6.0676,11.6303 -38.8622,3.3853 -38.8622,3.3853 0,0 -132.0142,-99.78043 -199.025,-146.99205 C 282.64125,188.2149 221.36259,134.51446 181.75237,109.4241 c -12.54201,-7.94449 1.15645,-33.410997 7.78053,-43.908207 26.25431,-41.60534 74.50053,-134.60066 102.16418,-191.054543 7.4581,-15.21968 14.4937,-34.58594 32.6218,-38.91505 65.1982,-15.56981 284.4171,164.08847282 392.2416,193.479183 21.2798,5.80043 35.011,25.47673 36.396,31.62588 z"
         id="path947-3" />
      <path
         style="fill:none;stroke:#000000;stroke-width:2.64583;stroke-linecap:butt;stroke-linejoin:miter;stroke-miterlimit:4;stroke-dasharray:none;stroke-opacity:1"
         d="m 727.57998,52.026033 9.9483,7.29543 -1.3264,25.86567 -29.1818,47.088737 -63.6694,115.40067 -66.9854,111.42129 -13.2644,7.9587 -128.0019,-88.87173 -169.78487,-121.36967 -76.27056,-55.04744 64.99577,-133.970887 51.06816,-84.892443 c 0,0 18.5702,-35.814 21.2231,-35.814 2.6529,0 42.4461,1.98967 45.7623,3.97933 3.3161,1.98967 116.0638,74.280853 116.0638,74.280853 0,0 126.6755,78.9234898 129.3284,81.5763298 2.6529,2.65293 110.0949,45.0991602 110.0949,45.0991602 z"
         id="path979" />
      <path
         style="fill:none;stroke:#000000;stroke-width:3.96875;stroke-linecap:round;stroke-linejoin:round;stroke-miterlimit:4;stroke-dasharray:none;stroke-opacity:1"
         d="m 291.17978,424.75683 c -3.97933,6.6322 -26.5289,21.2232 -26.5289,21.2232 L 125.37422,314.66203 153.22955,290.786 Z"
         id="path981" />
      <path
         style="fill:none;stroke:#fff000;stroke-width:3.96875;stroke-linecap:round;stroke-linejoin:round;stroke-miterlimit:4;stroke-dasharray:none;stroke-opacity:1"
         d="m 289.93108,412.26413 c -3.97931,6.6322 -26.52884,21.2231 -26.52884,21.2231 l -139.27667,-131.31796 27.85533,-23.876 z"
         id="path981-3" />
      <ellipse
         style="opacity:0.998;fill:#000f00;fill-opacity:1;fill-rule:evenodd;stroke:none;stroke-width:2.57081;stroke-linecap:round;stroke-linejoin:round;stroke-miterlimit:4;stroke-dasharray:none;stroke-opacity:1;paint-order:stroke fill markers"
         id="path998"
         cx="-444.49673"
         cy="94.285233"
         transform="scale(-1,1)"
         rx="17.526581"
         ry="16.427717" />
      <circle
         style="opacity:0.998;fill:#036acb;fill-opacity:0.647541;fill-rule:evenodd;stroke:none;stroke-width:3.96875;stroke-linecap:round;stroke-linejoin:round;stroke-miterlimit:4;stroke-dasharray:none;stroke-opacity:1;paint-order:stroke fill markers"
         id="path1000"
         cx="-352.57889"
         cy="-80.171127"
         r="18.758755"
         transform="scale(-1,1)" />
      <path
         style="fill:none;stroke:#b057d9;stroke-width:2.64583;stroke-linecap:butt;stroke-linejoin:round;stroke-miterlimit:4;stroke-dasharray:none;stroke-dashoffset:0;stroke-opacity:1"
         d="m 370.31338,-59.630757 23.5347,28.23242 -52.5245,43.1451 -61.90389,-39.39339 36.09679,-48.10953 v 24.31952 l -24.3367,-16.58056 24.3367,-7.73896"
         id="path1002" />
    </g>
    <path
       style="fill:none;stroke:#000000;stroke-width:5.29167;stroke-linecap:butt;stroke-linejoin:miter;stroke-miterlimit:4;stroke-dasharray:10.5833, 21.1667;stroke-dashoffset:0;stroke-opacity:1"
       d="M 443.4323,92.651436 -332.24163,-165.00317"
       id="path1316" />
    <g
       id="person">
      <path
         style="fill:none;stroke:#000000;stroke-width:5.29166667;stroke-linecap:butt;stroke-linejoin:miter;stroke-miterlimit:4;stroke-dasharray:none;stroke-opacity:1"
         d="m -338.09847,-155.41211 c 0,0 31.8469,-82.99574 26.70637,-119.86394 -5.1628,-37.02794 -24.78725,-75.5689 -24.78725,-75.5689 l -24.97463,-54.74109 c -26.52889,-54.38418 -25.0311,-55.43246 -25.0311,-55.43246 l 4.57806,-23.76913 -103.23689,23.876 -47.752,8.62189 45.76233,-1.98966 -69.63833,11.27477 c 0,0 73.61766,-6.63225 69.63833,-6.63225 -3.97933,0 -75.60733,9.28514 -75.60733,9.28514 l 38.46689,6.63219 -14.59089,1.32648 15.25407,2.65285 -30.50818,7.95867 25.86566,18.57026 12.60119,21.22307 -3.31608,51.73133 -1.32644,-14.59084 -9.28515,57.0371 -3.97933,-8.62192 -38.46685,70.96482 -7.29548,82.90277 -23.876,51.731333 -32.49785,10.61154 -13.26448,-1.98967 -7.29541,-34.487533 c 0,0 -8.62193,-18.57026 -29.845,-39.79334 -21.22311,-21.2231 -18.57026,-22.54959 -18.57026,-22.54959 v -515.32362 l 3.31615,11.27478 33.16111,-0.66322 c 0,0 -20.55992,3.31611 -17.907,4.64255 2.65289,1.32645 59.69,3.31611 59.69,3.31611 l -21.88634,2.65289 67.64867,19.23345 -58.36359,-9.94834 c 0,0 34.48759,7.95867 63.66933,15.25411 29.18181,7.29545 118.28945,45.36923 118.28945,45.36923 l 66.02384,62.20783 13.65757,30.53644 -4.53571,25.70238"
         id="path1290" />
      <path
         style="fill:none;stroke:#000000;stroke-width:5.29166667;stroke-linecap:round;stroke-linejoin:miter;stroke-opacity:1;stroke-miterlimit:4;stroke-dasharray:none"
         d="m -332.24163,-165.00317 c 0,0 4.53572,9.07145 6.80357,23.43454 2.26785,14.36309 -1.51191,46.869035 -1.51191,46.869035 0,0 -3.02381,104.3214238 -24.19048,146.654757 -21.16667,42.333332 -83.9107,100.541668 -83.9107,100.541668 l -114.14881,98.27381 c 0,0 -52.16071,55.18452 -52.16071,58.9643 0,3.77976 -37.79762,89.95834 -39.30953,102.05355 -1.5119,12.09524 -8.31547,38.55358 -8.31547,38.55358 l 2.26786,17.3869 c 0,0 42.33333,46.11309 50.6488,52.16073 8.31548,6.04761 51.40476,60.47618 51.40476,60.47618 l 11.33929,15.875 55.94048,49.89285 25.70238,26.45833 42.33332,72.57143 c 0,0 19.65478,18.89881 50.64881,53.67263 30.99406,34.77382 32.50597,43.08927 35.52976,48.38094 3.02382,5.29167 30.99406,30.99406 30.99406,39.30954 0,8.31546 -1.51191,24.19046 2.26785,25.70237 3.77976,1.51191 13.60715,15.11906 20.41072,20.41072 6.80358,5.29167 53.67261,43.84524 53.67261,43.84524 l -497.41665,-3.02381 8.87112,-1152.50335"
         id="path2073" />
      <path
         style="fill:none;stroke:#000000;stroke-width:5.29166667;stroke-linecap:butt;stroke-linejoin:round;stroke-opacity:1;stroke-miterlimit:4;stroke-dasharray:none"
         d="m -565.26602,-29.959202 c -13.89802,7.483554 -24.5888,16.036184 -27.79603,22.450636 -3.20724,6.4144789 -31.00327,34.210519 -35.27958,39.555896 -4.27631,5.345403 -14.96709,54.522978 -14.96709,70.55916 0,16.03616 9.6217,47.03943 9.6217,47.03943 l 29.93419,35.27959 c 0,0 37.41773,9.6217 54.52298,-1.06908 17.10525,-10.69078 19.24341,-34.21051 19.24341,-34.21051 0,0 -2.13816,7.48355 -11.75986,-9.62171 -9.6217,-17.10523 -9.6217,-11.75986 -9.6217,-21.38156 0,-9.62168 0,-13.89801 0,-13.89801 l -34.2105,5.34541 c 0,0 -3.20724,11.75985 -3.20724,-3.20726 0,-14.967079 4.27631,-17.10523 4.27631,-38.486791 0,-21.381561 0,-43.832223 0,-43.832223 l 22.45064,-16.036158 17.10525,-7.4835543 13.89802,-13.8980067 c 0,0 9.6217,-14.967082 -7.48355,-17.105259 -17.10525,-2.138151 -26.72695,0 -26.72695,0 z"
         id="path2702" />
      <path
         style="fill:none;stroke:#000000;stroke-width:5.29167;stroke-linecap:butt;stroke-linejoin:miter;stroke-miterlimit:4;stroke-dasharray:none;stroke-opacity:0.49180329"
         d="m -315.64782,-171.44826 c 0,0 31.84689,-82.99574 26.70638,-119.86395 -5.16281,-37.02793 -24.78725,-75.56889 -24.78725,-75.56889 l -24.97463,-54.7411 c -26.5289,-54.38417 -25.03112,-55.43245 -25.03112,-55.43245 l 4.57806,-23.76914 -103.23688,23.876 -47.752,8.62189 45.76232,-1.98965 -69.63833,11.27476 c 0,0 73.61767,-6.63224 69.63833,-6.63224 -3.97932,0 -75.60733,9.28513 -75.60733,9.28513 l 38.4669,6.6322 -14.59089,1.32648 15.25406,2.65284 -30.50817,7.95867 25.86565,18.57028 12.6012,21.22305 -3.31608,51.73133 -1.32645,-14.59084 -9.28515,57.0371 -3.97932,-8.62192 -38.46686,70.96482 -7.29547,82.90277 -23.876,51.73133 -32.49786,10.611558 -13.26448,-1.98969 -7.29541,-34.487508 c 0,0 -8.62193,-18.57026 -29.845,-39.79336 -21.22311,-21.2231 -18.57026,-22.54959 -18.57026,-22.54959 V -710.402 l 3.31615,11.27478 33.16111,-0.66322 c 0,0 -20.55992,3.31611 -17.907,4.64255 2.65289,1.32645 59.69,3.31611 59.69,3.31611 l -21.88634,2.65289 67.64867,19.23345 -58.36359,-9.94834 c 0,0 34.48759,7.95867 63.66933,15.25411 29.18181,7.29545 118.28946,45.36923 118.28946,45.36923 l 66.02384,62.20783 13.65758,30.53645 -4.53573,25.70237"
         id="path1290-8" />
      <path
         style="fill:none;stroke:#000000;stroke-width:5.29167;stroke-linecap:round;stroke-linejoin:miter;stroke-miterlimit:4;stroke-dasharray:none;stroke-opacity:0.49180329"
         d="m -309.79098,-181.03932 c 0,0 4.53573,9.07145 6.80358,23.43454 2.26785,14.36309 -1.51191,46.86903 -1.51191,46.86903 0,0 -3.02382,104.321418 -24.19048,146.654758 -21.16667,42.33333 -83.9107,100.541672 -83.9107,100.541672 l -114.14882,98.27381 c 0,0 -52.16071,55.18453 -52.16071,58.96433 0,3.7797 -37.79763,89.9583 -39.30954,102.0535 -1.51189,12.0953 -8.31546,38.5536 -8.31546,38.5536 l 2.26785,17.3869 c 0,0 42.33333,46.1131 50.6488,52.1607 8.31549,6.0476 51.40476,60.4762 51.40476,60.4762 l 11.3393,15.875 55.94048,49.8929 25.70238,26.4583 42.33332,72.5714 c 0,0 19.65479,18.8988 50.64882,53.6727 30.99406,34.7738 32.50597,43.0892 35.52976,48.3809 3.02382,5.2917 30.99406,30.9941 30.99406,39.3095 0,8.3155 -1.51191,24.1905 2.26785,25.7024 3.77976,1.5119 13.60715,15.1191 20.4107,20.4107 6.8036,5.2917 53.67263,43.8453 53.67263,43.8453 l -497.41667,-3.0238 8.87112,-1152.5034"
         id="path2073-6" />
      <path
         style="fill:none;stroke:#000000;stroke-width:5.29167;stroke-linecap:butt;stroke-linejoin:round;stroke-miterlimit:4;stroke-dasharray:none;stroke-opacity:0.49180329"
         d="m -542.81538,-45.995362 c -13.89802,7.48356 -24.5888,16.03619 -27.79603,22.45064 -3.20724,6.41448 -31.00326,34.21052 -35.27958,39.55589 -4.27631,5.34541 -14.96709,54.52298 -14.96709,70.55917 0,16.036162 9.6217,47.039422 9.6217,47.039422 l 29.93419,35.2796 c 0,0 37.41774,9.6217 54.52299,-1.06908 17.10524,-10.69078 19.24341,-34.21052 19.24341,-34.21052 0,0 -2.13817,7.48356 -11.75987,-9.6217 -9.6217,-17.10524 -9.6217,-11.75986 -9.6217,-21.38156 0,-9.621682 0,-13.898012 0,-13.898012 l -34.2105,5.3454 c 0,0 -3.20724,11.759862 -3.20724,-3.20725 0,-14.96708 4.27631,-17.10523 4.27631,-38.4868 0,-21.38156 0,-43.83222 0,-43.83222 l 22.45065,-16.03616 17.10524,-7.48355 13.89802,-13.89801 c 0,0 9.6217,-14.96708 -7.48354,-17.10526 -17.10526,-2.13815 -26.72696,0 -26.72696,0 z"
         id="path2702-2" />
    </g>
  </g>
</svg>
