<?xml version="1.0" encoding="UTF-8" standalone="no"?>
<svg
   xmlns:dc="http://purl.org/dc/elements/1.1/"
   xmlns:cc="http://creativecommons.org/ns#"
   xmlns:rdf="http://www.w3.org/1999/02/22-rdf-syntax-ns#"
   xmlns:svg="http://www.w3.org/2000/svg"
   xmlns="http://www.w3.org/2000/svg"
   version="1.0"
   width="4240.7178pt"
   height="4732.5938pt"
   viewBox="0 0 4240.7178 4732.5938"
   preserveAspectRatio="xMidYMid meet"
   id="svg108">
  <defs
     id="defs112" />
  <metadata
     id="metadata62">
Created by potrace 1.16, written by Peter Selinger 2001-2019
<rdf:RDF>
  <cc:Work
     rdf:about="">
    <dc:format>image/svg+xml</dc:format>
    <dc:type
       rdf:resource="http://purl.org/dc/dcmitype/StillImage" />
    <dc:title></dc:title>
  </cc:Work>
</rdf:RDF>
</metadata>
  <g
     transform="matrix(0.1,0,0,-0.1,-254.54319,4710.9872)"
     fill="#000000"
     stroke="none"
     id="g106">
    <g
       id="laptop">
      <path
         style="fill:none;stroke:#ff80ff;stroke-width:150;stroke-linecap:butt;stroke-linejoin:miter;stroke-miterlimit:4;stroke-dasharray:none;stroke-opacity:1"
         d="m 8234.3996,15002.4 c 0,0 6709.6354,-4762.403 8798.4004,-6241.5996 559.573,-396.2718 1955.199,996.4003 1955.199,996.4003 l 9061.601,10697.2003 -676.8,864.8 -7350.801,4455.599 c 0,0 -459.736,132.012 -602.222,-9.425 -3032.686,-3010.34 -9750.1941,-8859.028 -11283.2683,-10188.738 -203.5527,-176.551 97.8909,-574.237 97.8909,-574.237 z"
         id="path114" />
      <path
         style="fill:none;stroke:#e0ab00;stroke-width:150;stroke-linecap:butt;stroke-linejoin:miter;stroke-miterlimit:4;stroke-dasharray:none;stroke-opacity:1"
         d="m 2632.1342,26341.063 c -241.9007,-1074.028 3603.6232,-6900.147 4705.9372,-9013.066 171.993,-329.676 1101.6057,-95.961 1101.6057,-95.961 0,0 3742.1349,2828.422 5641.6529,4166.705 1882.575,1326.347 3619.609,2848.564 4742.417,3559.787 355.523,225.199 -32.781,947.084 -220.55,1244.643 -744.217,1179.364 -2111.826,3815.452 -2895.994,5415.719 -211.408,431.424 -410.843,980.389 -924.711,1103.104 -1848.14,441.349 -8062.2186,-4651.327 -11118.6611,-5484.449 -603.2051,-164.422 -992.4381,-722.175 -1031.6967,-896.482 z"
         id="path947" />
      <path
         d="m 15106.809,31799.874 c -165,-21 -250.001,-56 -617,-256 -306,-167 -915,-487 -1174,-616 -83,-42 -189,-98 -235,-125 -46,-27 -143,-79 -215,-115 -71,-36 -155,-81 -185,-100 -30,-19 -126,-74 -213,-122 -402,-220 -955,-559 -1255,-767 -224,-156 -693,-455 -991,-633 -164,-98 -513.9999,-334 -599.9999,-404 -25,-21 -81,-62 -125,-91 -44,-30 -100,-73 -125,-96 -25,-23 -72,-58 -105,-79 -33,-21 -98,-63 -145,-95 -112,-74 -212,-131 -400,-225 -182,-92 -401,-215 -584,-330 -430,-269 -930,-525 -1536,-787 -140,-60 -268,-116 -285,-123 -156,-69 -321,-132 -471,-180 -281,-89 -503,-176 -844,-327 -172.999,-77 -430,-189 -569.999,-250 -398,-171 -492,-222 -594,-323 -120,-119 -136,-251 -54,-449 73,-177 349,-644.999 640,-1087 364.999,-552.999 468,-726.999 723,-1224 211.999,-414.999 594.999,-1140 804.999,-1524.999 109,-200.001 315,-587.001 458,-862 146,-278 466,-825 790,-1348.001 272,-438.999 345,-559.999 484,-807.999 115,-207 440,-758.001 611,-1037.001 149,-243.999 237,-342 354,-397.999 61,-28.001 78,-31.001 158,-31.001 99,-0.999 155,14.001 266,70.001 90,45 474,319 1118.9999,799.999 518,387 816.001,603 1305.001,944.001 645,450 1101.999,782 1649.999,1194.999 328,248.001 530,394.001 794.999,575.001 256.001,174.999 767.001,537.999 1040.001,740 102,75 315.999,229.999 474.999,345 278.001,199.999 412.001,298.999 740.001,547.999 197,150 1001,708 1419.999,987 127.001,84 284.001,190.001 350.001,235.001 147,100.999 246,162 480,295 306.999,174 600.999,383 746,530 133.999,135 187,262 175.999,428.999 -10.999,173 -52.999,273 -369.999,881 -304,582 -369,711 -457,905 -159,349 -310.001,629 -466.001,860 -198.999,297 -312.999,498 -541.999,953 -90,179 -181.001,341 -288,510 -85.001,136 -189,315 -231,397 -42,83 -85.001,166 -96,185 -11,19 -51,91 -90,160 -38,69 -109.001,190 -156,270 -89,148 -247.001,427 -406.001,715 -48,88 -130.999,234 -184.999,325 -53,91 -123,212 -155,270 -103,187 -216,369 -264,430 -159,198 -348,286 -556,259 z"
         id="path84-9"
         style="fill:#b76a00;fill-opacity:0.364754;stroke:none;stroke-width:0.999997;stroke-opacity:1" />
      <path
         d="m 20271.808,23006.875 c -51,-14.001 -156,-88 -196.999,-138 -63,-79 -126,-135 -243,-220 -76.001,-55.001 -180,-144 -265.001,-228 -135.999,-133.001 -144,-140 -264.999,-200 -182.001,-91 -250,-140.001 -395.001,-285 -126.999,-127 -132.999,-132 -264.999,-198 -203.001,-104.001 -281.001,-165 -367,-284.001 -59,-82.999 -136.001,-150.999 -219,-195.999 -238.001,-128.001 -319.001,-194.001 -427.001,-349 -63.999,-90 -100.999,-119 -246.999,-190.001 -214,-103.999 -295,-165.999 -383.001,-297.999 -103.999,-156 -108,-159 -366.999,-278.001 -159,-72.999 -249,-159 -323.001,-307.999 -19.999,-39 -48,-85.001 -63,-103.001 -31.999,-39 -108.999,-78 -223.999,-115.999 -105,-34.001 -181.001,-72 -246,-121.001 -88.001,-66.999 -100.001,-84.999 -199.001,-297 -39.999,-84.999 -84,-111.999 -289.999,-172.999 -120,-35 -197,-75 -263,-137 -63,-60 -89.001,-108 -126,-230.001 -43,-138.999 -83.001,-174 -261,-222 -128.001,-34.999 -168,-51 -235,-93 -63,-39.999 -123,-100.999 -150,-153 -10.001,-18.999 -30,-78.999 -45,-132.999 -31.001,-118 -43.001,-144 -89,-183 -43,-39 -100,-57 -248.001,-83.001 -63.999,-10.999 -142.999,-27.999 -174,-39 -100.999,-36 -189.999,-123 -213.999,-210 -5.001,-19.999 -10,-72 -10,-117 0,-132 -34.001,-213.999 -103.001,-252 -26.999,-13.999 -62.999,-16.999 -216.999,-18 -109,-0.999 -203,-6 -230,-13.999 -108,-29 -184,-93 -216,-182 -13,-34 -14,-61 -8,-133 17,-190.001 3,-249 -66,-290 -33,-19 -52,-20.001 -290,-20.001 -253.999,0 -255,0 -310,-25.999 -71,-34.001 -126.999,-89 -158,-157.001 -28,-60.999 -27,-118.999 3,-252 26,-118.999 -1,-210.999 -66,-223.999 -49,-10.001 -207,-7.001 -279,4.999 -90,14.001 -235.999,14.001 -289.999,-0.999 -104.001,-28 -170.001,-87 -195,-173 -28.001,-96 -11.001,-134 130.999,-298 105,-121 224,-235 300,-286 32,-22 114,-68 181.001,-102 156.999,-78 204.999,-109 336,-219 58.999,-50 129,-106 154.999,-126 51,-37 176,-102 261,-136 162,-64 257,-133 373,-272 160,-191 219,-236 410,-309 143,-55 192,-99 267,-235 125,-230 222,-309 461,-375 63,-17 126,-37 139.999,-44 48,-25 79.001,-70 110.001,-160 102.999,-295 237,-443 419,-461 124,-13 369,108 519,256 82,81 127,148 201,303 79.999,164 103,191 220,245 366.999,168 410,204 573.999,466 100.001,160 140.001,196 313.001,280 228,111 297,168 438,361 144,196 198,244 396,354 196,109 337,235 460,411 164,235 215,283 405,378 128,64 255.999,148 369.999,244 135,111.999 610.001,558.999 1295.001,1218 152,146 351.999,336.999 444.999,425 326.001,309 627,598.999 689.001,666 35,37.999 116,136.999 182,220.999 148.999,193.001 214,261 340,359.001 144,111.999 192.999,158 306,288 54.999,63.999 186.999,201.999 293,306 172,170 196,198 229,266 42.999,87 54.999,168 36,238 -16.001,59 -74.001,113 -195,180.999 -167.001,94.001 -216,151.001 -230.001,265.001 -12.999,117 60,322.999 150,423 58.001,64 121.001,94.999 260.001,127 261.999,60.999 489,36 598.999,-65.001 49.001,-45.999 62,-48.999 109.001,-30.999 39,15 48,41 27.999,78.999 -50,92.001 -95,199.001 -107,257.001 -7.999,38 -19,138 -24,219.999 -13.999,213 -31.999,266.001 -118,347.001 -51,48 -134,93 -311,171.999 -54,24 -142.999,72 -196.999,107.001 -216,137 -296.001,168 -564,219 -281.001,53 -300,59 -443.001,153 -112.999,74 -208.999,159 -336.999,299 -60,66 -137.001,142 -171,169 -151,120.999 -337,174 -479.001,135 z m -4569.999,-8184 c 84,-61 75.999,-216 -14.001,-260 -69.999,-35 -145.999,51 -145.999,165 0,106 79,153 160,95 z"
         id="path94-1"
         style="fill:#00b800;fill-opacity:0.364754;stroke:#00f4ff;stroke-width:0.999997;stroke-opacity:1" />
      <path
         style="fill:none;stroke:#3380ff;stroke-width:150;stroke-linecap:butt;stroke-linejoin:miter;stroke-miterlimit:4;stroke-dasharray:none;stroke-opacity:1"
         d="m 9567.9531,14167.164 c 0,0 6151.3029,-4496.53 8240.0679,-5975.727 559.574,-396.271 1394.539,-44.477 1981.786,916.639 2045.72,3348.126 6334.297,7575.724 8902.078,10378.152 582.484,635.712 -517.276,1183.848 -517.276,1183.848 l -7350.801,4455.598 c 0,0 -459.736,132.012 -602.223,-9.425 C 17188.9,22105.909 10014.566,16648.016 8938.3181,14927.512 c -176.966,-282.9 629.635,-760.348 629.635,-760.348 z"
         id="path114-3" />
      <path
         style="fill:none;stroke:#299e45;stroke-width:150;stroke-linecap:butt;stroke-linejoin:miter;stroke-miterlimit:4;stroke-dasharray:none;stroke-opacity:1"
         d="m 3433.9441,25691.937 c -241.901,-1074.027 3603.623,-6900.146 4705.937,-9013.065 171.993,-329.676 1101.605,-95.961 1101.605,-95.961 0,0 3742.1349,2828.422 5641.6529,4166.704 1882.575,1326.348 3619.608,2848.565 4742.417,3559.788 355.522,225.198 -32.781,947.083 -220.55,1244.642 -744.217,1179.364 -2111.826,3815.452 -2895.994,5415.719 -211.409,431.424 -410.843,980.389 -924.711,1103.104 -1848.14,441.349 -8062.2179,-4651.327 -11118.6609,-5484.449 -603.205,-164.422 -992.438,-722.175 -1031.696,-896.482 z"
         id="path947-3" />
      <path
         style="fill:none;stroke:#000000;stroke-width:75;stroke-linecap:butt;stroke-linejoin:miter;stroke-miterlimit:4;stroke-dasharray:none;stroke-opacity:1"
         d="m 4153.2771,25936.435 -282,-206.8 37.6,-733.2 827.201,-1334.799 1804.8,-3271.2 1898.799,-3158.4 376,-225.6 3628.3999,2519.199 4812.8,3440.4 2162,1560.4 -1842.4,3797.6 -1447.6,2406.4 c 0,0 -526.4,1015.2 -601.6,1015.2 -75.2,0 -1203.199,-56.4 -1297.2,-112.8 -94,-56.4 -3289.999,-2105.599 -3289.999,-2105.599 0,0 -3590.8009,-2237.201 -3665.9999,-2312.4 -75.201,-75.201 -3120.801,-1278.401 -3120.801,-1278.401 z"
         id="path979" />
      <path
         style="fill:none;stroke:#000000;stroke-width:112.5;stroke-linecap:round;stroke-linejoin:round;stroke-miterlimit:4;stroke-dasharray:none;stroke-opacity:1"
         d="m 16523.677,15370.836 c 112.8,-188 752,-601.601 752,-601.601 l 3948,3722.4 -789.6,676.8 z"
         id="path981" />
      <path
         style="fill:none;stroke:#fff000;stroke-width:112.5;stroke-linecap:round;stroke-linejoin:round;stroke-miterlimit:4;stroke-dasharray:none;stroke-opacity:1"
         d="m 16559.072,15724.961 c 112.8,-188 752,-601.601 752,-601.601 l 3948,3722.4 -789.6,676.8 z"
         id="path981-3" />
      <ellipse
         style="opacity:0.998;fill:#ff0000;fill-opacity:1;fill-rule:evenodd;stroke:none;stroke-width:72.8733;stroke-linecap:round;stroke-linejoin:round;stroke-miterlimit:4;stroke-dasharray:none;stroke-opacity:1;paint-order:stroke fill markers"
         id="path998"
         cx="12177.685"
         cy="-24738.535"
         transform="scale(1,-1)"
         rx="496.81647"
         ry="465.66757" />
      <circle
         style="opacity:0.998;fill:#036acb;fill-opacity:0.647541;fill-rule:evenodd;stroke:none;stroke-width:112.5;stroke-linecap:round;stroke-linejoin:round;stroke-miterlimit:4;stroke-dasharray:none;stroke-opacity:1;paint-order:stroke fill markers"
         id="path1000"
         cx="14783.229"
         cy="-29683.756"
         r="531.74426"
         transform="scale(1,-1)" />
      <path
         style="fill:none;stroke:#b057d9;stroke-width:75;stroke-linecap:butt;stroke-linejoin:round;stroke-miterlimit:4;stroke-dasharray:none;stroke-dashoffset:0;stroke-opacity:1"
         d="m 14280.518,29101.509 -667.124,-800.289 1488.884,-1223.011 1754.756,1116.663 -1023.216,1363.735 v -689.372 l 689.859,470 -689.859,219.372"
         id="path1002" />
    </g>
    <path
       style="fill:none;stroke:#000000;stroke-width:149.9999991;stroke-linecap:butt;stroke-linejoin:miter;stroke-opacity:1;stroke-miterlimit:4;stroke-dasharray:299.99999821,599.99999641;stroke-dashoffset:0"
       d="m 12329.527,24882.96 22459.036,6017.881"
       id="path1316" />
    <g
       id="person">
      <path
         style="fill:none;stroke:#000000;stroke-width:149.9999991;stroke-linecap:butt;stroke-linejoin:miter;stroke-miterlimit:4;stroke-dasharray:none;stroke-opacity:1"
         d="m 36547.2,35438 c 0,0 -24.175,-90.222 250.112,933.432 274.287,1023.654 445.488,1284.968 445.488,1284.968 l 300.799,1316.001 c 752,1541.599 902.4,1635.6 902.4,1635.6 l 1052.801,-206.801 -977.601,75.2 1353.6,-244.4 -1297.2,56.4 1974,-319.6 c 0,0 -2086.8,188.001 -1974,188.001 112.8,0 2143.2,-263.201 2143.2,-263.201 l -1090.4,-187.999 413.6,-37.601 -432.399,-75.199 864.799,-225.6 -733.2,-526.401 -357.199,-601.599 93.999,-1466.4 37.6,413.599 263.201,-1616.8 112.8,244.401 1090.399,-2011.601 206.801,-2350 676.8,-1466.4 921.199,-300.8 376.001,56.4 206.799,977.6 c 0,0 244.401,526.401 846,1128 601.6,601.6 526.401,639.201 526.401,639.201 V 47094 l -94.001,-319.6 -940,18.8 c 0,0 582.801,-94 507.6,-131.6 -75.2,-37.6 -1692,-94 -1692,-94 l 620.4,-75.2 -1917.6,-545.2 1654.401,282 c 0,0 -977.601,-225.6 -1804.8,-432.4 -827.201,-206.8 -2838.801,-2143.2 -2838.801,-2143.2 l -714.399,-1334.8 469.999,-1165.6 446.501,-540.5"
         id="path1290" />
      <path
         style="fill:none;stroke:#000000;stroke-width:149.9999991;stroke-linecap:round;stroke-linejoin:miter;stroke-miterlimit:4;stroke-dasharray:none;stroke-opacity:1"
         d="m 36547.2,35438 116.569,-801.726 139.583,-465.277 225.991,-438.688 c 0,0 -26.587,-252.579 79.762,-478.57 106.349,-225.991 53.174,-159.523 53.174,-159.523 0,0 232.639,-252.579 332.341,-478.57 99.702,-225.992 172.816,-571.625 172.816,-571.625 l 152.876,-1236.306 c 0,0 -53.174,-312.4 86.409,-1083.429 139.583,-771.03 378.868,-1415.769 412.102,-1661.701 33.234,-245.932 259.226,-737.795 292.46,-1209.718 33.234,-471.923 -33.234,-412.102 -33.234,-412.102"
         id="path1292" />
      <path
         style="fill:none;stroke:#000000;stroke-width:149.9999991;stroke-linecap:butt;stroke-linejoin:miter;stroke-miterlimit:4;stroke-dasharray:none;stroke-opacity:1"
         d="m 38617.929,26680.05 c 0,0 112.996,-106.349 192.758,-365.574 79.761,-259.226 119.642,-691.268 119.642,-691.268 0,0 13.294,-365.574 119.642,-704.561 106.349,-338.987 265.873,-1036.902 265.873,-1036.902 0,0 139.582,-624.799 99.702,-1123.309 -39.881,-498.51 -79.762,-1090.076 -79.762,-1090.076"
         id="path1294" />
      <path
         style="fill:none;stroke:#000000;stroke-width:149.9999991;stroke-linecap:round;stroke-linejoin:miter;stroke-miterlimit:4;stroke-dasharray:none;stroke-opacity:1"
         d="m 38925.399,25944.001 c -18.799,141 -56.4,159.799 -18.799,733.2 37.599,573.399 855.399,789.6 1099.8,770.799 244.399,-18.8 535.8,0 789.6,-413.6 253.8,-413.599 460.599,-1287.799 460.599,-1287.799 0,0 112.8,-742.601 94,-1137.401 -18.799,-394.8 244.4,-1315.999 244.4,-1315.999 0,0 376,-545.201 413.601,-639.2 37.599,-94 159.799,-178.6 206.799,-460.6 47.001,-282 37.6,-1673.201 -65.799,-1889.4 -103.401,-216.2 -150.401,-733.2 -620.4,-996.401 -470.001,-263.199 -601.601,-366.6 -601.601,-366.6 0,0 -216.199,-93.999 -376,-507.6 -159.8,-413.599 -676.8,-1833 -733.2,-2105.599 -56.4,-272.6 -836.6,-3468.6 -864.8,-3675.401 -28.2,-206.799 -441.799,-3571.9991 -404.2,-3637.7996 37.6,-65.7997 -357.2,-2528.5994 -357.2,-2660.1997 0,-131.6002 9.401,-629.7997 9.401,-629.7997 l 366.6,-65.8005 c 0,0 206.799,244.4002 338.4,319.6005 131.599,75.1995 -47.001,216.1995 75.199,723.7995 122.201,507.6 1005.8,3073.7999 1005.8,3073.7999 0,0 601.6,1560.4006 714.4,1701.4006 112.8,141 761.4,1278.4 930.6,1485.199 169.2,206.801 1381.8,1908.201 1381.8,1908.201 0,0 470,1128 564,1353.6 94.001,225.6 75.2,413.6 75.2,413.6 0,0 -47,263.2 -112.8,507.6 -65.799,244.399 9.4,855.4 9.4,855.4 0,0 75.2,310.2 441.8,601.599 366.6,291.401 827.2,1269 827.2,1269"
         id="path1296" />
      <path
         style="fill:none;stroke:#000000;stroke-width:149.9999991;stroke-linecap:butt;stroke-linejoin:round;stroke-miterlimit:4;stroke-dasharray:none;stroke-opacity:1"
         d="m 41594.999,23293.201 c 0,0 13.992,-541.412 1050.893,-621.174 1036.902,-79.761 1834.518,-478.569 1834.518,-478.569 425.395,-638.093 425.395,-638.093 425.395,-638.093"
         id="path1298" />
      <path
         style="fill:none;stroke:#000000;stroke-width:149.9999991;stroke-linecap:round;stroke-linejoin:miter;stroke-miterlimit:4;stroke-dasharray:none;stroke-opacity:1"
         d="m 37162.279,33094.216 c 0,0 -299.106,66.468 -432.042,53.174 -132.936,-13.294 -186.11,-79.762 -265.872,-146.23 -79.762,-66.468 -13.294,-505.157 -13.294,-505.157 0,0 79.762,-491.864 13.294,-784.322 -66.468,-292.46 53.174,-1223.013 53.174,-1223.013 0,0 -159.523,-1143.25 -146.229,-1515.471 13.293,-372.221 305.753,-2033.922 305.753,-2033.922 0,0 79.762,-332.34 79.762,-545.037 0,-212.698 -13.294,-412.103 -13.294,-412.103"
         id="path1302" />
      <path
         style="fill:none;stroke:#000000;stroke-width:149.9999991;stroke-linecap:round;stroke-linejoin:miter;stroke-miterlimit:4;stroke-dasharray:none;stroke-opacity:1"
         d="m 36663.769,34636.274 -199.404,-132.936 c 0,0 -39.881,-398.809 -39.881,-478.57 0,-79.761 -13.293,-957.14 -13.293,-957.14 0,0 -146.23,-1076.782 -186.111,-1196.425 -39.881,-119.642 -159.523,-571.625 -172.817,-903.965 -13.293,-332.34 -186.111,-1050.195 -239.285,-1063.489 -53.174,-13.293 -66.468,-850.79 -66.468,-850.79 0,0 13.294,-1289.48 39.881,-1449.004 26.587,-159.522 13.293,-1050.195 13.293,-1050.195 l -93.054,-265.872"
         id="path1304" />
      <path
         style="fill:none;stroke:#000000;stroke-width:149.9999991;stroke-linecap:round;stroke-linejoin:miter;stroke-miterlimit:4;stroke-dasharray:none;stroke-opacity:1"
         d="m 36238.374,32110.489 c -265.872,0 -265.872,0 -265.872,0 -239.286,-199.404 -239.286,-358.928 -239.286,-358.928 0,0 39.882,-265.872 79.762,-505.157 39.881,-239.285 53.174,-917.259 53.174,-917.259 l -79.761,-305.753 v -172.817 l -39.881,-930.553 -146.23,-425.394 c 0,-66.468 0,-598.213 0,-598.213 l 13.294,-943.846 -172.817,-717.855 -93.055,-731.149 186.11,-425.395"
         id="path1308" />
      <path
         style="fill:none;stroke:#000000;stroke-width:149.9999991;stroke-linecap:round;stroke-linejoin:miter;stroke-miterlimit:4;stroke-dasharray:none;stroke-opacity:1"
         d="m 35533.812,25078.17 c 0,0 614.334,-1568.587 877.534,-2470.987 263.2,-902.4 263.2,-1635.6 263.2,-1635.6 l -206.8,-808.401 -282,-488.799 -1560.4,-4418.001 -2368.8,-5771.5991 c 0,0 -1034,-3271.1999 -1165.6,-3647.2004 -131.6,-375.9997 -338.4,-1466.4 -319.6,-1917.6 18.8,-451.2 131.6,-2199.5999 131.6,-2199.5999 l 244.4,-1128.00003 244.4,-751.99949 13343.541,65.050496 m -33.141,9541.748824 c 0,0 -2444,75.2003 -3985.6,-1522.7999 -1541.6,-1597.9995 -1729.6,-1898.7998 -1729.6,-1898.7998 l -418.746,-366.7822 -366.6,65.8005 -549.454,-206.6182 -601.6,-131.6003 c 0,0 -225.6,112.8 -752,-93.9997 -526.4,-206.7998 -733.2,-601.5998 -864.8,-620.4 -131.6,-18.8003 -338.4,-150.3998 -789.6,-413.6003"
         id="path1310" />
      <path
         style="fill:none;stroke:#000000;stroke-width:149.9999991;stroke-linecap:round;stroke-linejoin:miter;stroke-miterlimit:4;stroke-dasharray:none;stroke-opacity:1"
         d="m 43461.346,17794.382 c -1240.8,-1259.599 -1504,-1410 -1673.2,-1466.4 -169.2,-56.4 -2105.6,-394.8 -2105.6,-394.8"
         id="path1314" />
      <path
         style="fill:none;stroke:#000000;stroke-width:150;stroke-linecap:butt;stroke-linejoin:miter;stroke-miterlimit:4;stroke-dasharray:none;stroke-opacity:0.26229507"
         d="m 36199.85,35934.764 c 0,0 -24.175,-90.222 250.112,933.432 274.287,1023.654 445.488,1284.968 445.488,1284.968 l 300.799,1316.001 c 752,1541.599 902.4,1635.599 902.4,1635.599 l 1052.801,-206.8 -977.601,75.199 1353.6,-244.399 -1297.2,56.4 1974,-319.6 c 0,0 -2086.8,188.001 -1974,188.001 112.8,0 2143.2,-263.201 2143.2,-263.201 l -1090.4,-187.999 413.6,-37.601 -432.399,-75.199 864.799,-225.6 -733.2,-526.401 -357.199,-601.599 93.999,-1466.4 37.6,413.599 263.201,-1616.8 112.8,244.401 1090.399,-2011.601 206.801,-2350 676.8,-1466.4 921.199,-300.8 376.001,56.4 206.799,977.6 c 0,0 244.401,526.401 846,1128 601.6,601.6 526.401,639.201 526.401,639.201 v 14607.598 l -94.001,-319.6 -940,18.8 c 0,0 582.801,-94 507.6,-131.6 -75.2,-37.6 -1692,-94 -1692,-94 l 620.4,-75.2 -1917.6,-545.2 1654.401,282 c 0,0 -977.601,-225.6 -1804.8,-432.4 -827.201,-206.8 -2838.801,-2143.2 -2838.801,-2143.2 l -714.399,-1334.8 469.999,-1165.6 446.501,-540.499"
         id="path1290-2" />
      <path
         style="fill:none;stroke:#000000;stroke-width:150;stroke-linecap:round;stroke-linejoin:miter;stroke-miterlimit:4;stroke-dasharray:none;stroke-opacity:0.26229507"
         d="m 36199.85,35934.764 116.569,-801.726 139.583,-465.277 225.991,-438.688 c 0,0 -26.587,-252.579 79.762,-478.57 106.349,-225.991 53.174,-159.523 53.174,-159.523 0,0 232.639,-252.579 332.341,-478.57 99.702,-225.992 172.816,-571.625 172.816,-571.625 l 152.876,-1236.306 c 0,0 -53.174,-312.4 86.409,-1083.429 139.583,-771.03 378.868,-1415.769 412.102,-1661.701 33.234,-245.932 259.226,-737.795 292.46,-1209.718 33.234,-471.923 -33.234,-412.102 -33.234,-412.102"
         id="path1292-0" />
      <path
         style="fill:none;stroke:#000000;stroke-width:150;stroke-linecap:butt;stroke-linejoin:miter;stroke-miterlimit:4;stroke-dasharray:none;stroke-opacity:0.26229507"
         d="m 38270.579,27176.814 c 0,0 112.996,-106.349 192.758,-365.574 79.761,-259.226 119.642,-691.268 119.642,-691.268 0,0 13.294,-365.574 119.642,-704.561 106.349,-338.987 265.873,-1036.902 265.873,-1036.902 0,0 139.582,-624.799 99.702,-1123.309 -39.881,-498.51 -79.762,-1090.076 -79.762,-1090.076"
         id="path1294-8" />
      <path
         style="fill:none;stroke:#000000;stroke-width:150;stroke-linecap:round;stroke-linejoin:miter;stroke-miterlimit:4;stroke-dasharray:none;stroke-opacity:0.26229507"
         d="m 38578.049,26440.765 c -18.799,141 -56.4,159.799 -18.799,733.2 37.599,573.399 855.399,789.6 1099.8,770.799 244.399,-18.8 535.8,0 789.6,-413.6 253.8,-413.599 460.599,-1287.799 460.599,-1287.799 0,0 112.8,-742.601 94,-1137.401 -18.799,-394.8 244.4,-1315.999 244.4,-1315.999 0,0 376,-545.201 413.601,-639.2 37.599,-94 159.799,-178.6 206.799,-460.6 47.001,-282 37.6,-1673.201 -65.799,-1889.4 -103.401,-216.2 -150.401,-733.2 -620.4,-996.401 -470.001,-263.199 -601.601,-366.6 -601.601,-366.6 0,0 -216.199,-93.999 -376,-507.6 -159.8,-413.599 -676.8,-1833 -733.2,-2105.599 -56.4,-272.6 -836.6,-3468.599 -864.8,-3675.401 -28.2,-206.799 -441.799,-3571.999 -404.2,-3637.799 37.6,-65.8 -357.2,-2528.6 -357.2,-2660.2 0,-131.6 9.401,-629.8 9.401,-629.8 l 366.6,-65.8 c 0,0 206.799,244.4 338.4,319.6 131.599,75.2 -47.001,216.2 75.199,723.8 122.201,507.6 1005.8,3073.8 1005.8,3073.8 0,0 601.6,1560.401 714.4,1701.401 112.8,141 761.4,1278.399 930.6,1485.198 169.2,206.802 1381.8,1908.201 1381.8,1908.201 0,0 470,1128 564,1353.6 94.001,225.6 75.2,413.6 75.2,413.6 0,0 -47,263.2 -112.8,507.6 -65.799,244.399 9.4,855.4 9.4,855.4 0,0 75.2,310.2 441.8,601.599 366.6,291.401 827.2,1269 827.2,1269"
         id="path1296-3" />
      <path
         style="fill:none;stroke:#000000;stroke-width:150;stroke-linecap:butt;stroke-linejoin:round;stroke-miterlimit:4;stroke-dasharray:none;stroke-opacity:0.26229507"
         d="m 41247.649,23789.965 c 0,0 13.992,-541.412 1050.893,-621.174 1036.902,-79.761 1834.518,-478.569 1834.518,-478.569 425.395,-638.093 425.395,-638.093 425.395,-638.093"
         id="path1298-4" />
      <path
         style="fill:none;stroke:#000000;stroke-width:150;stroke-linecap:round;stroke-linejoin:miter;stroke-miterlimit:4;stroke-dasharray:none;stroke-opacity:0.26229507"
         d="m 36814.929,33590.98 c 0,0 -299.106,66.468 -432.042,53.174 -132.936,-13.294 -186.11,-79.762 -265.872,-146.23 -79.762,-66.468 -13.294,-505.157 -13.294,-505.157 0,0 79.762,-491.864 13.294,-784.322 -66.468,-292.46 53.174,-1223.013 53.174,-1223.013 0,0 -159.523,-1143.25 -146.229,-1515.471 13.293,-372.221 305.753,-2033.922 305.753,-2033.922 0,0 79.762,-332.34 79.762,-545.037 0,-212.698 -13.294,-412.103 -13.294,-412.103"
         id="path1302-6" />
      <path
         style="fill:none;stroke:#000000;stroke-width:150;stroke-linecap:round;stroke-linejoin:miter;stroke-miterlimit:4;stroke-dasharray:none;stroke-opacity:0.26229507"
         d="m 36316.419,35133.038 -199.404,-132.936 c 0,0 -39.881,-398.809 -39.881,-478.57 0,-79.761 -13.293,-957.14 -13.293,-957.14 0,0 -146.23,-1076.782 -186.111,-1196.425 -39.881,-119.642 -159.523,-571.625 -172.817,-903.965 -13.293,-332.34 -186.111,-1050.195 -239.285,-1063.489 -53.174,-13.293 -66.468,-850.79 -66.468,-850.79 0,0 13.294,-1289.48 39.881,-1449.004 26.587,-159.522 13.293,-1050.195 13.293,-1050.195 l -93.054,-265.872"
         id="path1304-4" />
      <path
         style="fill:none;stroke:#000000;stroke-width:150;stroke-linecap:round;stroke-linejoin:miter;stroke-miterlimit:4;stroke-dasharray:none;stroke-opacity:0.26229507"
         d="m 35891.024,32607.253 c -265.872,0 -265.872,0 -265.872,0 -239.286,-199.404 -239.286,-358.928 -239.286,-358.928 0,0 39.882,-265.872 79.762,-505.157 39.881,-239.285 53.174,-917.259 53.174,-917.259 l -79.761,-305.753 v -172.817 l -39.881,-930.553 -146.23,-425.394 c 0,-66.468 0,-598.213 0,-598.213 l 13.294,-943.846 -172.817,-717.855 -93.055,-731.149 186.11,-425.395"
         id="path1308-3" />
      <path
         style="fill:none;stroke:#000000;stroke-width:150;stroke-linecap:round;stroke-linejoin:miter;stroke-miterlimit:4;stroke-dasharray:none;stroke-opacity:0.26229507"
         d="m 35186.462,25574.934 c 0,0 614.334,-1568.587 877.534,-2470.987 263.2,-902.4 263.2,-1635.6 263.2,-1635.6 l -206.8,-808.401 -282,-488.799 -1560.4,-4418.001 -2368.8,-5771.599 c 0,0 -1034,-3271.2 -1165.6,-3647.2 -131.6,-376 -338.4,-1466.4 -319.6,-1917.6 18.8,-451.2 131.6,-2199.6 131.6,-2199.6 l 244.4,-1128 244.4,-751.9995 13343.541,65.0505 m -33.141,9541.749 c 0,0 -2444,75.2 -3985.6,-1522.8 -1541.6,-1598 -1729.6,-1898.8 -1729.6,-1898.8 l -418.746,-366.782 -366.6,65.8 -549.454,-206.618 -601.6,-131.6 c 0,0 -225.6,112.8 -752,-94 -526.4,-206.799 -733.2,-601.599 -864.8,-620.4 -131.6,-18.8 -338.4,-150.399 -789.6,-413.6"
         id="path1310-9" />
      <path
         style="fill:none;stroke:#000000;stroke-width:150;stroke-linecap:round;stroke-linejoin:miter;stroke-miterlimit:4;stroke-dasharray:none;stroke-opacity:0.26229507"
         d="m 43113.996,18291.146 c -1240.8,-1259.599 -1504,-1410 -1673.2,-1466.4 -169.2,-56.4 -2105.6,-394.8 -2105.6,-394.8"
         id="path1314-4" />
    </g>
  </g>
</svg>
